<?xml version="1.0" standalone="no"?>
<!DOCTYPE svg PUBLIC "-//W3C//DTD SVG 20010904//EN"
 "http://www.w3.org/TR/2001/REC-SVG-20010904/DTD/svg10.dtd">
<svg version="1.0" xmlns="http://www.w3.org/2000/svg"
 width="700.000000pt" height="700.000000pt" viewBox="0 0 700.000000 700.000000"
 preserveAspectRatio="xMidYMid meet">
<metadata>
Created by potrace 1.14, written by Peter Selinger 2001-2017
</metadata>
<g transform="translate(0.000000,700.000000) scale(0.100000,-0.100000)"
fill="#000000" stroke="none">
<path d="M2729 6743 c-62 -115 -81 -149 -259 -478 -90 -165 -185 -340 -212
-390 -27 -49 -57 -108 -68 -130 l-20 -40 -705 3 c-666 2 -706 1 -712 -15 -4
-10 -41 -79 -83 -153 -42 -74 -174 -309 -293 -522 l-217 -386 15 -34 c9 -18
20 -40 25 -48 11 -18 114 -210 195 -365 32 -60 61 -114 65 -120 4 -5 35 -64
70 -130 34 -66 75 -142 90 -170 15 -27 53 -98 84 -157 l57 -108 -54 -102 c-30
-57 -95 -177 -144 -268 -50 -91 -108 -199 -131 -240 -22 -41 -92 -171 -156
-289 l-117 -214 22 -41 c12 -22 34 -63 49 -91 15 -27 51 -93 80 -145 29 -52
64 -115 78 -140 13 -25 37 -67 52 -95 15 -27 36 -66 47 -85 11 -19 73 -132
138 -250 65 -118 123 -223 129 -232 10 -17 57 -18 710 -20 l700 -3 34 -60 c19
-33 52 -94 74 -135 23 -41 60 -109 83 -150 39 -69 266 -480 338 -610 16 -30
37 -67 45 -82 l16 -27 700 2 700 2 198 345 c109 190 247 429 306 532 l107 188
689 2 690 3 53 90 c29 50 56 97 60 105 4 8 28 51 54 95 40 69 235 409 304 530
13 22 53 91 89 154 55 97 63 118 54 135 -6 12 -81 145 -166 296 -85 151 -166
295 -180 320 -14 25 -62 110 -107 190 -158 280 -159 280 -142 293 8 7 27 35
42 62 31 56 288 504 316 550 11 17 22 37 26 45 4 8 60 107 125 219 65 112 118
209 118 215 0 6 -24 54 -54 106 -29 52 -135 241 -236 420 -100 179 -216 385
-257 458 l-75 132 -687 0 -687 0 -71 128 c-161 287 -383 682 -511 907 l-40 70
-700 3 -701 2 -42 -77z m1436 -664 l208 -371 -16 -31 c-18 -36 -61 -111 -114
-202 -20 -33 -45 -76 -55 -95 -131 -232 -232 -400 -241 -401 -44 -3 -958 -1
-961 2 -1 2 -19 33 -38 69 -19 36 -108 196 -197 357 -88 160 -161 295 -161
299 0 6 112 218 188 354 13 25 39 72 57 105 18 33 56 102 84 154 28 52 51 97
51 101 0 28 33 30 505 30 l481 0 209 -371z m-2214 -746 c4 -4 76 -125 159
-268 82 -143 154 -267 160 -275 5 -8 29 -49 53 -91 l44 -76 -25 -44 c-14 -24
-41 -73 -60 -109 -19 -36 -43 -77 -54 -92 -10 -14 -18 -29 -18 -32 0 -3 -42
-82 -94 -174 -51 -92 -110 -196 -129 -232 l-36 -65 -486 0 -486 0 -112 210
c-62 116 -139 260 -171 320 -32 61 -72 134 -89 163 l-30 54 21 36 c11 21 30
55 43 77 21 37 72 129 139 250 15 28 52 93 82 146 30 52 58 102 61 110 35 71
54 94 81 99 50 8 938 2 947 -7z m3950 8 c55 -1 55 -1 77 -43 12 -24 33 -63 48
-88 14 -25 49 -85 77 -135 27 -49 58 -103 67 -120 9 -16 58 -103 108 -192 51
-90 92 -165 92 -167 0 -4 -111 -200 -140 -246 -5 -8 -37 -64 -72 -125 -34 -60
-70 -122 -78 -136 -8 -15 -40 -70 -70 -123 l-55 -96 -486 0 -487 0 -31 60
c-17 33 -60 112 -96 176 -36 63 -65 117 -65 119 0 2 -20 38 -45 79 -25 42 -45
78 -45 80 0 2 -25 48 -56 102 -46 82 -54 103 -47 125 4 15 94 185 198 377
l190 351 65 3 c52 2 575 2 851 -1z m-1731 -741 c0 -5 -2 -10 -4 -10 -3 0 -8 5
-11 10 -3 6 -1 10 4 10 6 0 11 -4 11 -10z m-2191 -1525 c15 -27 86 -153 158
-280 71 -126 141 -250 155 -275 14 -25 36 -65 50 -89 l25 -44 -89 -156 c-50
-86 -100 -174 -113 -196 -12 -22 -45 -78 -72 -125 -27 -47 -52 -92 -56 -100
-4 -8 -18 -33 -32 -55 -14 -22 -31 -52 -37 -67 -11 -26 -17 -28 -68 -29 -376
-3 -914 1 -920 7 -9 9 -340 605 -379 682 l-22 43 24 42 c13 23 40 71 59 107
20 36 79 146 133 245 53 99 117 217 142 263 l44 82 486 -2 485 -3 27 -50z
m4057 -137 c59 -106 153 -274 209 -373 l102 -179 -30 -51 c-17 -27 -35 -59
-41 -70 -28 -49 -138 -241 -147 -255 -5 -8 -50 -87 -100 -175 -50 -88 -94
-164 -99 -168 -10 -12 -959 -12 -970 -1 -10 10 -290 512 -290 519 0 3 -11 22
-24 43 -12 20 -38 65 -55 99 l-33 63 35 62 c34 62 59 109 129 238 65 121 230
425 235 433 2 4 222 7 487 7 l484 0 108 -192z m-2080 -908 c10 -19 28 -51 40
-70 11 -19 35 -62 53 -95 18 -33 41 -76 53 -95 16 -28 104 -185 239 -426 16
-29 16 -32 -2 -55 -10 -13 -19 -27 -19 -30 0 -4 -48 -89 -106 -190 -58 -101
-144 -250 -191 -332 l-85 -147 -485 2 -486 3 -27 50 c-15 28 -105 189 -200
360 l-172 310 34 65 c19 36 81 151 138 255 57 105 119 219 138 255 41 77 83
151 93 165 5 6 179 10 487 10 l480 0 18 -35z"/>
</g>
</svg>
